<?xml version="1.0" encoding="UTF-8"?>
<svg xmlns="http://www.w3.org/2000/svg" xmlns:xlink="http://www.w3.org/1999/xlink" width="375pt" height="374.999991pt" viewBox="0 0 375 374.999991" version="1.2">
<defs>
<clipPath id="clip1">
  <path d="M 62.351562 60.285156 L 311 60.285156 L 311 136 L 62.351562 136 Z M 62.351562 60.285156 "/>
</clipPath>
<clipPath id="clip2">
  <path d="M 67 135 L 312.851562 135 L 312.851562 183 L 67 183 Z M 67 135 "/>
</clipPath>
<clipPath id="clip3">
  <path d="M 67 181 L 312.851562 181 L 312.851562 314.535156 L 67 314.535156 Z M 67 181 "/>
</clipPath>
<clipPath id="clip4">
  <path d="M 62.351562 85 L 156 85 L 156 130 L 62.351562 130 Z M 62.351562 85 "/>
</clipPath>
</defs>
<g id="surface1">
<g clip-path="url(#clip1)" clip-rule="nonzero">
<path style=" stroke:none;fill-rule:nonzero;fill:rgb(100%,100%,100%);fill-opacity:1;" d="M 305.421875 60.328125 L 62.820312 90.050781 L 62.351562 90.101562 L 67.910156 135.230469 L 310.980469 105.457031 Z M 305.421875 60.328125 "/>
</g>
<g clip-path="url(#clip2)" clip-rule="nonzero">
<path style=" stroke:none;fill-rule:nonzero;fill:rgb(100%,100%,100%);fill-opacity:1;" d="M 67.910156 135.28125 L 67.910156 182.015625 L 68.585938 182.015625 L 312.851562 182.066406 L 312.851562 135.230469 Z M 67.910156 135.28125 "/>
</g>
<g clip-path="url(#clip3)" clip-rule="nonzero">
<path style=" stroke:none;fill-rule:nonzero;fill:rgb(100%,8.628845%,8.628845%);fill-opacity:1;" d="M 67.910156 181.339844 L 312.75 181.339844 L 312.75 314.492188 L 67.910156 314.492188 Z M 67.910156 181.339844 "/>
</g>
<g clip-path="url(#clip4)" clip-rule="nonzero">
<path style=" stroke:none;fill-rule:nonzero;fill:rgb(100%,8.628845%,8.628845%);fill-opacity:1;" d="M 155.601562 124.441406 L 100.015625 85.484375 L 72.480469 88.855469 L 62.820312 90.050781 L 118.40625 129.003906 Z M 155.601562 124.441406 "/>
</g>
<path style=" stroke:none;fill-rule:nonzero;fill:rgb(100%,8.628845%,8.628845%);fill-opacity:1;" d="M 228.175781 115.570312 L 172.640625 76.617188 L 140.015625 80.609375 L 135.394531 81.179688 L 190.980469 120.136719 Z M 228.175781 115.570312 "/>
<path style=" stroke:none;fill-rule:nonzero;fill:rgb(100%,8.628845%,8.628845%);fill-opacity:1;" d="M 308.4375 105.765625 L 308.539062 105.664062 L 253.109375 66.761719 L 249.578125 67.125 L 215.863281 71.324219 L 271.5 110.28125 Z M 308.4375 105.765625 "/>
<path style=" stroke:none;fill-rule:nonzero;fill:rgb(100%,8.628845%,8.628845%);fill-opacity:1;" d="M 156.070312 135.28125 L 118.664062 135.28125 L 119.027344 135.539062 L 68.585938 182.015625 L 105.574219 182.015625 L 156.226562 135.382812 Z M 156.070312 135.28125 "/>
<path style=" stroke:none;fill-rule:nonzero;fill:rgb(100%,8.628845%,8.628845%);fill-opacity:1;" d="M 229.421875 135.230469 L 191.914062 135.230469 L 192.226562 135.488281 L 141.730469 182.066406 L 178.824219 182.066406 L 229.527344 135.332031 Z M 229.421875 135.230469 "/>
<path style=" stroke:none;fill-rule:nonzero;fill:rgb(100%,8.628845%,8.628845%);fill-opacity:1;" d="M 273.007812 135.230469 L 273.109375 135.28125 L 222.355469 182.066406 L 259.449219 182.066406 L 310.253906 135.230469 Z M 273.007812 135.230469 "/>
<path style=" stroke:none;fill-rule:nonzero;fill:rgb(100%,100%,100%);fill-opacity:1;" d="M 79.496094 214.589844 L 297.683594 214.589844 L 297.683594 217.132812 L 79.496094 217.132812 Z M 79.496094 214.589844 "/>
<path style=" stroke:none;fill-rule:nonzero;fill:rgb(100%,100%,100%);fill-opacity:1;" d="M 79.496094 256.398438 L 79.496094 258.9375 L 187.289062 258.9375 L 187.289062 298.878906 L 189.886719 298.878906 L 189.886719 258.9375 L 297.632812 258.9375 L 297.632812 256.398438 Z M 79.496094 256.398438 "/>
<path style=" stroke:none;fill-rule:nonzero;fill:rgb(45.098877%,45.098877%,45.098877%);fill-opacity:1;" d="M 71.546875 110.796875 L 88.585938 110.796875 L 107.546875 128.796875 L 107.546875 147.316406 L 71.546875 147.316406 Z M 71.546875 110.796875 "/>
<path style=" stroke:none;fill-rule:nonzero;fill:rgb(100%,100%,100%);fill-opacity:1;" d="M 80.847656 139.585938 C 80.847656 140 80.765625 140.394531 80.609375 140.777344 C 80.449219 141.160156 80.226562 141.496094 79.933594 141.785156 C 79.640625 142.078125 79.304688 142.304688 78.921875 142.460938 C 78.539062 142.621094 78.144531 142.699219 77.730469 142.699219 C 77.316406 142.699219 76.917969 142.621094 76.535156 142.460938 C 76.15625 142.304688 75.816406 142.078125 75.523438 141.785156 C 75.234375 141.496094 75.007812 141.160156 74.847656 140.777344 C 74.691406 140.394531 74.613281 140 74.613281 139.585938 C 74.613281 139.171875 74.691406 138.777344 74.847656 138.394531 C 75.007812 138.015625 75.234375 137.675781 75.523438 137.386719 C 75.816406 137.09375 76.15625 136.867188 76.535156 136.710938 C 76.917969 136.554688 77.316406 136.472656 77.730469 136.472656 C 78.144531 136.472656 78.539062 136.554688 78.921875 136.710938 C 79.304688 136.867188 79.640625 137.09375 79.933594 137.386719 C 80.226562 137.675781 80.449219 138.015625 80.609375 138.394531 C 80.765625 138.777344 80.847656 139.171875 80.847656 139.585938 Z M 80.847656 139.585938 "/>
<path style=" stroke:none;fill-rule:nonzero;fill:rgb(100%,100%,100%);fill-opacity:1;" d="M 80.847656 117.023438 C 80.847656 117.433594 80.765625 117.832031 80.609375 118.214844 C 80.449219 118.59375 80.226562 118.929688 79.933594 119.222656 C 79.640625 119.515625 79.304688 119.738281 78.921875 119.898438 C 78.539062 120.054688 78.144531 120.136719 77.730469 120.136719 C 77.316406 120.136719 76.917969 120.054688 76.535156 119.898438 C 76.15625 119.738281 75.816406 119.515625 75.523438 119.222656 C 75.234375 118.929688 75.007812 118.59375 74.847656 118.214844 C 74.691406 117.832031 74.613281 117.433594 74.613281 117.023438 C 74.613281 116.609375 74.691406 116.214844 74.847656 115.832031 C 75.007812 115.449219 75.234375 115.113281 75.523438 114.820312 C 75.816406 114.53125 76.15625 114.304688 76.535156 114.148438 C 76.917969 113.988281 77.316406 113.910156 77.730469 113.910156 C 78.144531 113.910156 78.539062 113.988281 78.921875 114.148438 C 79.304688 114.304688 79.640625 114.53125 79.933594 114.820312 C 80.226562 115.113281 80.449219 115.449219 80.609375 115.832031 C 80.765625 116.214844 80.847656 116.609375 80.847656 117.023438 Z M 80.847656 117.023438 "/>
<path style=" stroke:none;fill-rule:nonzero;fill:rgb(100%,100%,100%);fill-opacity:1;" d="M 104.015625 139.585938 C 104.015625 140 103.9375 140.394531 103.777344 140.777344 C 103.621094 141.160156 103.394531 141.496094 103.101562 141.785156 C 102.808594 142.078125 102.472656 142.304688 102.089844 142.460938 C 101.710938 142.621094 101.3125 142.699219 100.898438 142.699219 C 100.484375 142.699219 100.085938 142.621094 99.707031 142.460938 C 99.324219 142.304688 98.988281 142.078125 98.695312 141.785156 C 98.402344 141.496094 98.175781 141.160156 98.019531 140.777344 C 97.859375 140.394531 97.78125 140 97.78125 139.585938 C 97.78125 139.171875 97.859375 138.777344 98.019531 138.394531 C 98.175781 138.015625 98.402344 137.675781 98.695312 137.386719 C 98.988281 137.09375 99.324219 136.867188 99.707031 136.710938 C 100.085938 136.554688 100.484375 136.472656 100.898438 136.472656 C 101.3125 136.472656 101.710938 136.554688 102.089844 136.710938 C 102.472656 136.867188 102.808594 137.09375 103.101562 137.386719 C 103.394531 137.675781 103.621094 138.015625 103.777344 138.394531 C 103.9375 138.777344 104.015625 139.171875 104.015625 139.585938 Z M 104.015625 139.585938 "/>
</g>
</svg>
